# xmcd
#
# Track frame offsets:
#	150
#	16650
#	32774
#	59274
#	74724
#	91974
#	110039
#	129079
#	152349
#	168439
#	189204
#	209519
#	226243
#	258075
#
# Disc length: 3872 seconds
#
# Revision: 1
# Processed by: cddbd v1.5.1PL0 Copyright (c) Steve Scherf et al.
# Submitted via: EasyCDDAExtractor 7.0.6.1
#
DISCID=ae0f1e0e
DTITLE=Sovereign - Sovereign  Too Hot To Handle
DYEAR=1900
DGENRE=Country
TTITLE0=I want You To Go
TTITLE1=Oh Boy
TTITLE2=Goodbye
TTITLE3=Too Hot To Handle
TTITLE4=Blue Eyed Hide Away
TTITLE5=She Was My Girl
TTITLE6=See Them Ride
TTITLE7=The Sunbird
TTITLE8=This Time
TTITLE9=A Woman's Heart
TTITLE10=Drink The Wine
TTITLE11=Weather The Storm
TTITLE12=King Of The Murray
TTITLE13=Data
EXTD=
EXTT0=
EXTT1=
EXTT2=
EXTT3=
EXTT4=
EXTT5=
EXTT6=
EXTT7=
EXTT8=
EXTT9=
EXTT10=
EXTT11=
EXTT12=
EXTT13=
PLAYORDER=
